<svg width="24" height="24" viewBox="0 0 24 24" fill="none" xmlns="http://www.w3.org/2000/svg">
<path d="M13 6.99099C14.031 6.97699 15.067 7.35899 15.854 8.14599C16.641 8.93299 17.023 9.96899 17.009 11M13 2.96399C15.056 2.96399 17.113 3.74899 18.682 5.31799C20.251 6.88699 21.036 8.94399 21.036 11M18.965 16.61L17.792 15.437C17.206 14.851 16.256 14.851 15.671 15.437L14.749 16.359C14.543 16.565 14.231 16.634 13.965 16.517C12.629 15.932 11.309 15.045 10.132 13.868C8.96 12.696 8.076 11.382 7.49 10.051C7.368 9.77599 7.439 9.45299 7.652 9.23999L8.478 8.41399C9.149 7.74299 9.149 6.79399 8.563 6.20799L7.39 5.03499C6.609 4.25399 5.343 4.25399 4.562 5.03499L3.91 5.68599C3.169 6.42699 2.86 7.49599 3.06 8.55599C3.554 11.169 5.072 14.03 7.521 16.479C9.97 18.928 12.831 20.446 15.444 20.94C16.504 21.14 17.573 20.831 18.314 20.09L18.965 19.439C19.746 18.658 19.746 17.392 18.965 16.61Z" stroke="#DB3A34" stroke-width="1.5" stroke-miterlimit="10" stroke-linecap="round" stroke-linejoin="round"/>
</svg>
