<svg width="24" height="24" viewBox="0 0 24 24" fill="none" xmlns="http://www.w3.org/2000/svg">
<path d="M9.99995 9.955C9.99995 11.06 10.895 11.955 12 11.955C13.105 11.955 14 11.06 14 9.955V9.918C14 8.813 13.105 7.918 12 7.918C10.895 7.918 9.99995 8.813 9.99995 9.918M5.12695 10.045V9.873C5.12695 6.077 8.20395 3 12 3C15.796 3 18.873 6.077 18.873 9.873V10.045C18.873 13.506 14.491 18.716 12.725 20.676C12.336 21.108 11.664 21.108 11.275 20.676C9.50895 18.716 5.12695 13.506 5.12695 10.045Z" stroke="#DB3A34" stroke-width="1.5" stroke-linecap="round" stroke-linejoin="round"/>
</svg>
