<svg fill="#000000" height="800px" width="800px" version="1.1" xmlns="http://www.w3.org/2000/svg" viewBox="0 0 512 512" xmlns:xlink="http://www.w3.org/1999/xlink" enable-background="new 0 0 512 512" transform="matrix(-1, 0, 0, 1, 0, 0)">
<path d="M496,224c8.836,0,16-7.164,16-16v-80c0-8.836-7.164-16-16-16c-17.648,0-32-14.352-32-32c0-8.836-7.164-16-16-16H80 c0-8.836-7.164-16-16-16s-16,7.164-16,16H16C7.164,64,0,71.164,0,80v96c0,8.836,7.164,16,16,16v48c0,8.836,7.164,16,16,16h144 c0,52.938,43.063,96,96,96h49.043l15.145,98.438C337.391,458.234,344.102,464,352,464h144c4.672,0,9.102-2.031,12.141-5.578 c3.039-3.547,4.383-8.234,3.672-12.859l-31.781-206.578C480.555,230.633,487.516,224,496,224z M272,320c-35.289,0-64-28.711-64-64 h72c0,8.82-7.18,16-16,16c-8.836,0-16,7.164-16,16s7.164,16,16,16c20.581,0,38.029-13.084,44.84-31.318L316.12,320H272z M480,194.742c-18.625,6.602-32,24.398-32,45.258c0,0.813,0.063,1.625,0.188,2.43L477.352,432H365.727l-29.914-194.43 C334.609,229.766,327.898,224,320,224H48v-32h432V194.742z M480,160H32V96h402.023c5.805,22.461,23.516,40.172,45.977,45.977V160z"/> <path d="m392,408h48c4.68,0 9.125-2.047 12.164-5.609 3.039-3.555 4.367-8.266 3.641-12.883l-24-152c-1.227-7.781-7.93-13.508-15.805-13.508h-48c-4.68,0-9.125,2.047-12.164,5.609-3.039,3.555-4.367,8.266-3.641,12.883l24,152c1.227,7.781 7.93,13.508 15.805,13.508zm10.328-152l18.945,120h-15.602l-18.945-120h15.602z"/>
</svg>